<mxfile host="app.diagrams.net" modified="2023-11-12T12:26:17.148Z" agent="Mozilla/5.0 (Windows NT 10.0; Win64; x64) AppleWebKit/537.36 (KHTML, like Gecko) Chrome/116.0.0.0 Safari/537.36 Edg/116.0.1938.62" etag="Tva49CoWK67ON0CC4pXe" version="22.1.0" type="device">
  <diagram name="第 1 页" id="xi8N2PuY8wry8mssODOM">
    <mxGraphModel dx="691" dy="392" grid="1" gridSize="10" guides="1" tooltips="1" connect="1" arrows="1" fold="1" page="1" pageScale="1" pageWidth="827" pageHeight="1169" math="0" shadow="0">
      <root>
        <mxCell id="0" />
        <mxCell id="1" parent="0" />
        <mxCell id="VdYylv15DrDC9iHLw-NV-1" value="计算机控制信号" style="rounded=0;whiteSpace=wrap;html=1;" vertex="1" parent="1">
          <mxGeometry y="35" width="30" height="90" as="geometry" />
        </mxCell>
        <mxCell id="VdYylv15DrDC9iHLw-NV-2" value="" style="rounded=0;whiteSpace=wrap;html=1;" vertex="1" parent="1">
          <mxGeometry x="40" y="25" width="270" height="120" as="geometry" />
        </mxCell>
        <mxCell id="VdYylv15DrDC9iHLw-NV-3" value="GPU" style="rounded=0;whiteSpace=wrap;html=1;" vertex="1" parent="1">
          <mxGeometry x="60" y="45" width="60" height="40" as="geometry" />
        </mxCell>
        <mxCell id="VdYylv15DrDC9iHLw-NV-4" value="显存" style="rounded=0;whiteSpace=wrap;html=1;" vertex="1" parent="1">
          <mxGeometry x="50" y="115" width="250" height="20" as="geometry" />
        </mxCell>
        <mxCell id="VdYylv15DrDC9iHLw-NV-5" value="RAMDAC" style="rounded=0;whiteSpace=wrap;html=1;" vertex="1" parent="1">
          <mxGeometry x="200" y="45" width="70" height="30" as="geometry" />
        </mxCell>
        <mxCell id="VdYylv15DrDC9iHLw-NV-6" value="" style="html=1;shadow=0;dashed=0;align=center;verticalAlign=middle;shape=mxgraph.arrows2.twoWayArrow;dy=0.58;dx=6.28;" vertex="1" parent="1">
          <mxGeometry x="30" y="60" width="30" height="10" as="geometry" />
        </mxCell>
        <mxCell id="VdYylv15DrDC9iHLw-NV-7" value="" style="html=1;shadow=0;dashed=0;align=center;verticalAlign=middle;shape=mxgraph.arrows2.twoWayArrow;dy=0.58;dx=6.28;rotation=-90;" vertex="1" parent="1">
          <mxGeometry x="80" y="95" width="30" height="10" as="geometry" />
        </mxCell>
        <mxCell id="VdYylv15DrDC9iHLw-NV-10" value="" style="html=1;shadow=0;dashed=0;align=center;verticalAlign=middle;shape=mxgraph.arrows2.arrow;dy=0.61;dx=8.01;direction=north;notch=0;" vertex="1" parent="1">
          <mxGeometry x="230" y="75" width="10" height="40" as="geometry" />
        </mxCell>
        <mxCell id="VdYylv15DrDC9iHLw-NV-11" value="" style="html=1;shadow=0;dashed=0;align=center;verticalAlign=middle;shape=mxgraph.arrows2.arrow;dy=0.61;dx=8.01;direction=north;notch=0;" vertex="1" parent="1">
          <mxGeometry x="230" y="25" width="10" height="20" as="geometry" />
        </mxCell>
        <mxCell id="VdYylv15DrDC9iHLw-NV-12" value="模拟信号输出" style="rounded=0;whiteSpace=wrap;html=1;" vertex="1" parent="1">
          <mxGeometry x="185" width="100" height="25" as="geometry" />
        </mxCell>
        <mxCell id="VdYylv15DrDC9iHLw-NV-13" value="①" style="text;html=1;strokeColor=none;fillColor=none;align=center;verticalAlign=middle;whiteSpace=wrap;rounded=0;" vertex="1" parent="1">
          <mxGeometry x="38" y="45" width="20" height="20" as="geometry" />
        </mxCell>
        <mxCell id="VdYylv15DrDC9iHLw-NV-14" value="②" style="text;html=1;strokeColor=none;fillColor=none;align=center;verticalAlign=middle;whiteSpace=wrap;rounded=0;" vertex="1" parent="1">
          <mxGeometry x="94" y="90" width="20" height="20" as="geometry" />
        </mxCell>
        <mxCell id="VdYylv15DrDC9iHLw-NV-15" value="③" style="text;html=1;strokeColor=none;fillColor=none;align=center;verticalAlign=middle;whiteSpace=wrap;rounded=0;" vertex="1" parent="1">
          <mxGeometry x="234" y="85" width="20" height="20" as="geometry" />
        </mxCell>
        <mxCell id="VdYylv15DrDC9iHLw-NV-16" value="④" style="text;html=1;strokeColor=none;fillColor=none;align=center;verticalAlign=middle;whiteSpace=wrap;rounded=0;" vertex="1" parent="1">
          <mxGeometry x="236" y="26" width="20" height="20" as="geometry" />
        </mxCell>
      </root>
    </mxGraphModel>
  </diagram>
</mxfile>
